<svg xmlns="http://www.w3.org/2000/svg" width="55" height="20"><path fill="#fff" d="M27.038 16.04a2.46 2.46 0 01-2.2-2.449c0-1.337 1.103-2.542 2.462-2.527h3.567V7.246h-3.165c-.763 0-1.487.051-2.208.261-.097.033-.205.065-.303.099-2.459.887-4.178 3.27-4.178 5.985 0 .842.175 1.681.498 2.458H18.82l-3.945-4.238A6.298 6.298 0 0018.13 6.3c0-3.476-2.825-6.3-6.304-6.3a6.303 6.303 0 00-6.115 4.773c-.214.874-.163 1.634-.163 2.522v4.067h.051a5.437 5.437 0 011.013-1.526c.184-.186.38-.367.585-.534a5.47 5.47 0 012.141-1.047V6.3a2.49 2.49 0 011.984-2.439 2.42 2.42 0 01.504-.048 2.487 2.487 0 11.341 4.952c-.894.123-1.682-.025-2.582.169-.112.028-.22.057-.33.087-1.619.482-2.861 1.809-3.291 3.458-.591 2.275-.088 3.581-3.04 3.581H0v3.779h1.695c3.353 0 6.112-.374 7.275-3.9a14.71 14.71 0 00.478-1.93 1.564 1.564 0 011.379-1.248l.358.381 1.329 1.382 3.937 4.089c.117.124.238.236.355.331.844.69 1.72.794 2.832.794h13.246v-3.689h-4.878c-.32 0-.658.021-.968-.009"/><path fill="#fff" d="M54.79.006v3.816h-2.625c-1.327 0-2.09.268-2.642 1.059-.251.353-.456.826-.638 1.419l-4.061 12.837c-.137.45-.256.604-.718.604h-3.941c-.461 0-.581-.154-.718-.604L35.386 6.3c-.182-.593-.387-1.066-.637-1.419-.553-.791-1.316-1.059-2.643-1.059h-4.238c-.267 0-.541-.011-.797.017-.991.114-1.8.815-2.08 1.743a2.458 2.458 0 00-.08.41c-.038.285-.016.587-.016.877a7.023 7.023 0 00-3.668 3.064c-.051.091-.108.182-.16.279 0-1.355-.016-2.722 0-4.083.04-3.235 2.604-5.861 5.799-6.106.177-.017.353-.017.53-.017.017 0 .034-.006.05-.006.143 0 .28.006.422.006h4.67c.428 0 .832 0 1.237.057 1.378.199 2.625.82 3.537 1.766.734.768 1.15 1.606 1.469 2.494 1.264 3.554 2.216 7.473 3.355 11.072 1.139-3.599 2.09-7.518 3.354-11.072.319-.888.735-1.726 1.47-2.494.91-.946 2.158-1.567 3.537-1.766.404-.057.808-.057 1.236-.057z"/></svg>
