<svg xmlns="http://www.w3.org/2000/svg" width="98" height="41" viewBox="0 0 98 41"><g><g><g><path fill="none" stroke="#b31983" stroke-miterlimit="50" stroke-width="1.2" d="M48.081 18.024L35.58 2.043C34.887 1.11 33.942.6 32.934.6H2.646C1.512.6.6 1.833.6 3.321v33.786c0 1.488.912 2.718 2.046 2.718h30.258c1.008 0 1.983-.552 2.706-1.485l12.501-16.362c.819-1.065.819-2.892-.03-3.954z"/></g><g><g><text dominant-baseline="text-before-edge" style="font-kerning:normal" fill="#fff" font-family="'Roboto Medium','Roboto-Medium'" font-size="19.5" transform="translate(14 3)"><tspan style="font-kerning:normal"></tspan></text></g></g><g><g><text dominant-baseline="text-before-edge" style="font-kerning:normal" fill="#b31983" font-family="'Roboto','Roboto-Bold'" font-size="19.5" transform="translate(14 7)"><tspan style="font-kerning:normal">A</tspan></text></g></g><g><path fill="#b31983" d="M75.318 20.522H78.3l-1.494-4.796zm8.18 5.182h-3.59l-.81-2.592H74.52l-.801 2.592h-3.57l5.085-13.863h3.14zM97.273 3.321C97.272 1.833 96.36.6 95.226.6H64.938c-1.008 0-1.953.51-2.646 1.446L49.79 18.024c-.85 1.065-.85 2.892-.033 3.954l12.5 16.362c.727.933 1.702 1.488 2.71 1.488h30.258c1.134 0 2.046-1.233 2.046-2.721z"/></g></g></g></svg>